<?xml version="1.0" encoding="UTF-8"?>
<svg width="120" height="72" viewBox="0 0 120 72" fill="none" xmlns="http://www.w3.org/2000/svg">
  <rect width="120" height="72" fill="white"/>
  <path d="M33.9 43.438C33.9 44.114 33.975 44.65 34.109 45.016C34.258 45.383 34.467 45.765 34.751 46.162C34.856 46.286 34.901 46.418 34.901 46.538C34.901 46.703 34.796 46.868 34.572 47.034L33.169 47.981C32.989 48.109 32.817 48.174 32.667 48.174C32.495 48.174 32.323 48.088 32.144 47.928C31.86 47.636 31.62 47.329 31.433 47.034C31.246 46.73 31.059 46.372 30.865 45.952C29.573 47.438 27.972 48.181 26.063 48.181C24.696 48.181 23.613 47.789 22.821 47.014C22.029 46.239 21.626 45.184 21.626 43.857C21.626 42.447 22.12 41.321 23.117 40.5C24.114 39.679 25.467 39.268 27.18 39.268C27.779 39.268 28.4 39.335 29.052 39.456C29.703 39.576 30.378 39.746 31.075 39.947V38.599C31.075 37.466 30.803 36.658 30.26 36.189C29.703 35.72 28.816 35.486 27.592 35.486C26.966 35.486 26.325 35.56 25.673 35.72C25.022 35.881 24.384 36.095 23.762 36.362C23.448 36.496 23.226 36.576 23.096 36.609C22.973 36.642 22.877 36.658 22.808 36.658C22.586 36.658 22.474 36.504 22.474 36.189V35.183C22.474 34.941 22.517 34.755 22.609 34.638C22.701 34.52 22.853 34.399 23.076 34.282C23.698 33.963 24.445 33.697 25.319 33.483C26.194 33.261 27.13 33.154 28.129 33.154C30.066 33.154 31.503 33.596 32.437 34.48C33.357 35.364 33.82 36.723 33.82 38.555V43.438H33.9Z" fill="#252F3E"/>
  <path d="M26.914 45.951C27.5 45.951 28.108 45.831 28.753 45.591C29.398 45.351 29.974 44.971 30.451 44.475C30.735 44.161 30.942 43.821 31.052 43.441C31.161 43.061 31.22 42.594 31.22 42.024V41.885C30.691 41.731 30.126 41.605 29.533 41.518C28.94 41.431 28.355 41.384 27.779 41.384C26.731 41.384 25.961 41.578 25.447 41.965C24.933 42.352 24.681 42.899 24.681 43.621C24.681 44.295 24.876 44.815 25.268 45.195C25.652 45.582 26.207 45.775 26.914 45.775V45.951Z" fill="#252F3E"/>
  <path d="M41.877 48.01C41.594 48.01 41.398 47.957 41.27 47.844C41.142 47.738 41.029 47.511 40.932 47.191L36.566 33.797C36.468 33.457 36.42 33.237 36.42 33.107C36.42 32.814 36.566 32.661 36.85 32.661H38.651C38.947 32.661 39.152 32.714 39.262 32.827C39.387 32.934 39.485 33.161 39.582 33.48L42.834 45.308L45.863 33.48C45.944 33.154 46.042 32.934 46.17 32.827C46.298 32.72 46.509 32.668 46.786 32.668H48.248C48.545 32.668 48.746 32.72 48.875 32.834C49.003 32.94 49.107 33.161 49.175 33.487L52.242 45.463L55.599 33.487C55.696 33.161 55.794 32.94 55.922 32.834C56.051 32.727 56.249 32.674 56.532 32.674H58.249C58.532 32.674 58.686 32.821 58.686 33.114C58.686 33.187 58.672 33.267 58.651 33.354C58.63 33.44 58.602 33.54 58.546 33.67L54.048 47.064C53.951 47.384 53.839 47.604 53.71 47.711C53.582 47.818 53.386 47.877 53.117 47.877H51.565C51.268 47.877 51.067 47.824 50.939 47.718C50.811 47.611 50.707 47.391 50.638 47.064L47.618 35.46L44.612 47.057C44.536 47.384 44.432 47.604 44.304 47.711C44.176 47.818 43.967 47.877 43.677 47.877H42.125L41.877 48.01Z" fill="#252F3E"/>
  <path d="M66.607 48.321C65.71 48.321 64.82 48.214 63.959 48C63.099 47.787 62.399 47.531 61.894 47.237C61.61 47.064 61.415 46.878 61.335 46.703C61.255 46.528 61.214 46.342 61.214 46.169V45.129C61.214 44.82 61.335 44.666 61.578 44.666C61.659 44.666 61.739 44.679 61.82 44.706C61.9 44.733 62.015 44.773 62.15 44.827C62.707 45.121 63.328 45.349 64.008 45.509C64.695 45.67 65.363 45.749 66.047 45.749C67.166 45.749 68.026 45.556 68.614 45.169C69.203 44.782 69.504 44.242 69.504 43.548C69.504 43.054 69.344 42.647 69.023 42.32C68.702 41.993 68.093 41.692 67.223 41.419L64.641 40.653C63.356 40.293 62.411 39.76 61.82 39.053C61.228 38.346 60.932 37.518 60.932 36.592C60.932 35.813 61.108 35.127 61.456 34.54C61.805 33.953 62.279 33.459 62.868 33.066C63.457 32.666 64.127 32.366 64.89 32.16C65.652 31.953 66.446 31.853 67.257 31.853C67.664 31.853 68.078 31.88 68.491 31.933C68.912 31.986 69.301 32.06 69.683 32.146C70.044 32.24 70.378 32.34 70.685 32.446C70.992 32.553 71.244 32.659 71.435 32.766C71.69 32.906 71.872 33.046 71.985 33.193C72.099 33.333 72.152 33.513 72.152 33.74V34.714C72.152 35.023 72.031 35.183 71.788 35.183C71.681 35.183 71.503 35.127 71.255 35.013C70.308 34.493 69.233 34.233 68.034 34.233C67.017 34.233 66.217 34.4 65.652 34.733C65.086 35.067 64.807 35.567 64.807 36.252C64.807 36.746 64.986 37.16 65.342 37.493C65.698 37.826 66.347 38.146 67.29 38.44L69.825 39.2C71.102 39.56 72.031 40.066 72.615 40.72C73.197 41.373 73.49 42.16 73.49 43.066C73.49 43.853 73.319 44.553 72.978 45.16C72.636 45.766 72.162 46.28 71.559 46.693C70.956 47.107 70.25 47.42 69.437 47.633C68.588 48.091 67.644 48.321 66.607 48.321Z" fill="#252F3E"/>
  <path fill-rule="evenodd" clip-rule="evenodd" d="M75.671 47.344C73.06 49.291 69.437 50.264 66.447 50.264C62.091 50.264 58.241 48.79 55.369 46.23C55.086 45.99 55.369 45.656 55.698 45.843C58.8 47.49 62.579 48.443 66.494 48.443C69.169 48.443 72.146 47.877 74.884 46.71C75.376 46.497 75.789 47.057 75.671 47.344Z" fill="#FF9900"/>
  <path fill-rule="evenodd" clip-rule="evenodd" d="M76.831 45.996C76.438 45.489 74.487 45.716 73.613 45.829C73.308 45.863 73.26 45.596 73.532 45.396C75.046 44.369 77.549 44.669 77.885 45.076C78.222 45.489 77.79 47.883 76.37 49.024C76.117 49.237 75.865 49.124 75.978 48.837C76.314 48.051 77.223 46.503 76.831 45.996Z" fill="#FF9900"/>
</svg> 