<svg width="120" height="72" viewBox="0 0 120 72" fill="none" xmlns="http://www.w3.org/2000/svg">
  <rect width="120" height="72" fill="white"/>
  <path d="M57.3418 28.3066L51.0356 21.9907L51.0669 21.9628L67.3465 21.9561C68.5146 21.9537 69.5674 22.6459 70.0313 23.7021L76.8843 38.4678L70.4626 38.4663L65.5981 28.2913C65.1354 27.2387 64.085 26.549 62.9207 26.5506L57.3418 28.3066Z" fill="#EA4335"/>
  <path d="M42.8127 37.0857C42.0968 35.5823 42.0968 33.8422 42.8127 32.3388L49.5997 20.0002L42.9981 20.0002C41.7764 20.0002 40.675 20.7573 40.2413 21.8883L33.1145 38.0002C32.8054 38.7158 32.649 39.4917 32.6509 40.2765C32.6451 43.1565 34.9777 45.4981 37.8509 45.4981L48.3145 45.5002L52.8813 37.0881L42.8127 37.0857Z" fill="#FBBC05"/>
  <path d="M77.1855 45.4958H72.1855L76.8855 38.4639L70.4638 38.4654L65.5855 49.7516C65.1241 50.802 65.1241 52.0071 65.5855 53.0575L70.4638 64.3316C70.9275 65.3872 71.9795 66.0793 73.1468 66.0777L80.5855 66.0777L75.8855 56.5425C75.3093 55.3143 75.3093 53.9081 75.8855 52.6798L80.5855 43.1446C81.1618 41.9164 81.1618 40.5102 80.5855 39.2819L77.1855 45.4958Z" fill="#34A853"/>
  <path d="M63.0981 26.546C61.9339 26.5476 60.8835 27.2373 60.4208 28.2899L42.8106 63.3373C42.3488 64.3886 42.3488 65.5941 42.8106 66.6455L47.6898 77.9998H54.0132C55.2253 77.9998 56.3274 77.2535 56.7745 76.1331L74.6511 38.4651L63.0981 26.546Z" fill="#4285F4"/>
</svg> 